# xmcd
#
# Track frame offsets: 
#        150
#        8979
#        23211
#        36134
#        46175
#        57033
#        68597
#        82700
#        94441
#        103191
#        115773
#        128641
#        137776
#        150132
#        162424
#        174617
#        184196
#        200603
#        214684
#        227328
#        241097
#
# Disc length: 3585 seconds
#
# Revision: 1
# Processed by: cddbd v1.5.2PL0 Copyright (c) Steve Scherf et al.
# Submitted via: ExactAudioCopyFreeDBPlugin 1.0
#
DISCID=070dff15
DTITLE=Aretha Franklin - The Queen in Waiting
DYEAR=1965
DGENRE=Soul
TTITLE0=Tighten Up Your Tie, Button Up Your Jacket (Make for the Door)
TTITLE0=(mono)
TTITLE1=(No, No) I'm Losing You
TTITLE2=Why Was I Born?
TTITLE3=Hands Off (mono)
TTITLE4=Swanee
TTITLE5=You Made Me Love You
TTITLE6=Until You Were Gone (mono)
TTITLE7=Mockingbird (mono)
TTITLE8=Can't You Just See Me (mono)
TTITLE9=Today I Sing the Blues (mono)
TTITLE10=Walk on By
TTITLE11=One Room Paradise
TTITLE12=Every Little Bit Hurts
TTITLE13=Evil Gal Blues
TTITLE14=Rough Lover
TTITLE15=Trouble in Mind
TTITLE16=Without the One You Love
TTITLE17=Won't Be Long
TTITLE18=Take a Look
TTITLE19=Runnin' Out of Fools (studio version)
TTITLE20=Skylark (studio version)
EXTD=
EXTT0=
EXTT1=
EXTT2=
EXTT3=
EXTT4=
EXTT5=
EXTT6=
EXTT7=
EXTT8=
EXTT9=
EXTT10=
EXTT11=
EXTT12=
EXTT13=
EXTT14=
EXTT15=
EXTT16=
EXTT17=
EXTT18=
EXTT19=
EXTT20=
PLAYORDER=
